<svg width="40" height="43" viewBox="0 0 40 43" fill="none" xmlns="http://www.w3.org/2000/svg">
<path d="M35.2927 33.5635L27.6151 30.4386C26.3334 29.8514 25.5153 28.5751 25.5153 27.1754V26.048C25.5153 25.5162 25.6007 24.9865 25.7781 24.4824C25.7781 24.4824 30.606 18.0666 30.606 12.1486C30.606 4.75425 25.8572 0 19.9975 0C14.1399 0 9.38894 4.75439 9.38894 12.1486C9.38894 18.0666 14.2211 24.4824 14.2211 24.4824C14.3942 24.9865 14.4839 25.5162 14.4839 26.048V27.1754C14.4839 28.5751 13.6593 29.8514 12.3797 30.4386L4.70209 33.5635C2.91833 34.3782 1.64726 36.0119 1.29699 37.9349L0.901733 42.9999H19.9975H39.0932L38.7023 37.9349C38.3475 36.012 37.0765 34.3783 35.2927 33.5635Z" fill="white"/>
</svg>
