<svg width="58" height="59" viewBox="0 0 58 59" fill="#fff" xmlns="http://www.w3.org/2000/svg">
<path fill-rule="evenodd" clip-rule="evenodd" d="M51.9169 24.3583C51.0127 15.0833 45.5294 0.5 28.5835 0.5C11.6377 0.5 6.15437 15.0833 5.2502 24.3583C2.07836 25.5621 -0.0138355 28.6074 0.00013053 32V36.0833C0.00013053 40.5937 3.65654 44.25 8.16687 44.25C12.6772 44.25 16.3335 40.5937 16.3335 36.0833V32C16.3189 28.6807 14.3035 25.6979 11.2294 24.4458C11.8127 19.0792 14.671 6.33333 28.5835 6.33333C42.496 6.33333 45.3252 19.0792 45.9085 24.4458C42.8406 25.7007 40.8354 28.6854 40.8335 32V36.0833C40.8462 39.2187 42.6465 42.0721 45.471 43.4333C44.246 45.7375 41.1252 48.8583 33.4544 49.7917C31.921 47.4633 28.9544 46.5454 26.374 47.6009C23.7936 48.6565 22.3208 51.3904 22.8589 54.1259C23.397 56.8614 25.7956 58.8333 28.5835 58.8333C30.7866 58.8211 32.7948 57.5688 33.7752 55.5958C46.2877 54.1667 50.2835 47.7208 51.5377 43.9292C54.9307 42.8301 57.2126 39.6496 57.1669 36.0833V32C57.1809 28.6074 55.0887 25.5621 51.9169 24.3583ZM10.5002 36.0833C10.5002 37.372 9.45553 38.4167 8.16687 38.4167C6.8782 38.4167 5.83353 37.372 5.83353 36.0833V32C5.83353 31.1664 6.27826 30.3961 7.0002 29.9793C7.72214 29.5625 8.6116 29.5625 9.33353 29.9793C10.0555 30.3961 10.5002 31.1664 10.5002 32V36.0833ZM46.6669 32C46.6669 30.7113 47.7115 29.6667 49.0002 29.6667C50.2889 29.6667 51.3335 30.7113 51.3335 32V36.0833C51.3335 37.372 50.2889 38.4167 49.0002 38.4167C47.7115 38.4167 46.6669 37.372 46.6669 36.0833V32Z" fill="white"/>
</svg>
