<svg width="70" height="71" viewBox="0 0 70 71" fill="#fff" xmlns="http://www.w3.org/2000/svg">
<g clip-path="url(#clip0_3_48)">
<path d="M67.8125 68.7048H15.3125C14.8772 68.7048 14.525 68.3526 14.525 67.9173V55.5798H10.9375V54.0048H19.6875V55.582H16.1V67.1298H67.025V16.2048H54.6875C54.2522 16.2048 53.9 15.8526 53.9 15.4173V3.0798H16.1V14.6298H19.6875V16.2048H10.9375V14.6298H14.525V2.2923C14.525 1.85698 14.8772 1.5048 15.3125 1.5048H54.6875C54.8975 1.5048 55.0987 1.58792 55.2453 1.73448L68.3703 14.8595C68.5169 15.0082 68.6 15.2073 68.6 15.4173V67.9173C68.6 68.3526 68.2478 68.7048 67.8125 68.7048ZM55.475 14.6298H65.9116L55.475 4.19323V14.6298ZM41.5625 55.5798H24.0625V54.0048H40.775V16.2048H24.0625V14.6298H41.5625C41.9978 14.6298 42.35 14.982 42.35 15.4173V23.3798H59.0625V24.9548H42.35V32.1298H59.0625V33.7048H42.35V40.8798H59.0625V42.457H42.35V49.6298H59.0625V51.207H42.35V54.7923C42.35 55.2276 41.9978 55.5798 41.5625 55.5798ZM6.56249 55.5798H2.18749C1.75218 55.5798 1.39999 55.2276 1.39999 54.7923V50.4173H2.97499V54.0048H6.56249V55.5798ZM32.5062 46.0423H30.9312V44.9485C30.9312 40.9607 28.2297 37.3973 24.3622 36.286C24.0516 36.1964 23.8262 35.9251 23.7956 35.6035C23.765 35.282 23.9334 34.9735 24.2222 34.827C25.9984 33.9235 27.1031 32.1451 27.1031 30.1829C27.1031 27.2998 24.7581 24.9548 21.875 24.9548C18.9919 24.9548 16.6469 27.2998 16.6469 30.1829C16.6469 32.1451 17.7494 33.9235 19.5278 34.827C19.8166 34.9735 19.985 35.282 19.9544 35.6035C19.9237 35.9251 19.6984 36.1964 19.3878 36.286C15.5203 37.3973 12.8187 40.9607 12.8187 44.9485V46.0423H11.2437V44.9485C11.2437 40.7967 13.7309 37.0385 17.4541 35.3279C15.9556 34.0548 15.0719 32.1932 15.0719 30.1829C15.0719 26.4314 18.1234 23.3798 21.875 23.3798C25.6266 23.3798 28.6781 26.4314 28.6781 30.1829C28.6781 32.1932 27.7944 34.0548 26.2959 35.3279C30.0191 37.0385 32.5062 40.7967 32.5062 44.9485V46.0423ZM2.97499 46.0423H1.39999V37.2923H2.97499V46.0423ZM2.97499 32.9173H1.39999V24.1673H2.97499V32.9173ZM2.97499 19.7923H1.39999V15.4173C1.39999 14.982 1.75218 14.6298 2.18749 14.6298H6.56249V16.2048H2.97499V19.7923Z" fill="white"/>
</g>
<defs>
<clipPath id="clip0_3_48">
<rect width="70" height="70" fill="white" transform="translate(0 0.104797)"/>
</clipPath>
</defs>
</svg>
